HIERARCHY
ROOT Hips
{
	OFFSET -3.958830 18.904000 13.208200
	CHANNELS 6 Xposition Yposition Zposition Zrotation Yrotation Xrotation 
	JOINT LHipJoint
	{
		OFFSET 0.000000 0.000000 0.000000
		CHANNELS 3 Zrotation Yrotation Xrotation
		JOINT LeftUpLeg
		{
			OFFSET 1.800000 -1.400000 0.085000
			CHANNELS 3 Zrotation Yrotation Xrotation
			JOINT LeftLeg
			{
				OFFSET 2.215000 -6.000000 0.000000
				CHANNELS 3 Zrotation Yrotation Xrotation
				JOINT LeftFoot
				{
					OFFSET 2.500000 -6.900000 0.000000
					CHANNELS 3 Zrotation Yrotation Xrotation
					JOINT LeftToeBase
					{
						OFFSET 0.200000 -0.500000 1.950000
						CHANNELS 3 Zrotation Yrotation Xrotation
						End Site
						{
							OFFSET 0.000000 0.000000 0.000000
						}
					}
				}
			}
		}
	}
	JOINT RHipJoint
	{
		OFFSET 0.000000 0.000000 0.000000
		CHANNELS 3 Zrotation Yrotation Xrotation
		JOINT RightUpLeg
		{
			OFFSET -1.800000 -1.400000 0.085000
			CHANNELS 3 Zrotation Yrotation Xrotation
			JOINT RightLeg
			{
				OFFSET -2.215000 -6.000000 0.000000
				CHANNELS 3 Zrotation Yrotation Xrotation
				JOINT RightFoot
				{
					OFFSET -2.500000 -6.900000 0.000000
					CHANNELS 3 Zrotation Yrotation Xrotation
					JOINT RightToeBase
					{
						OFFSET -0.200000 -0.500000 1.950000
						CHANNELS 3 Zrotation Yrotation Xrotation
						End Site
						{
							OFFSET 0.000000 0.000000 0.000000
						}
					}
				}
			}
		}
	}
	JOINT LowerBack
	{
		OFFSET 0.000000 0.000000 0.000000
		CHANNELS 3 Zrotation Yrotation Xrotation
		JOINT Spine
		{
			OFFSET -0.087000 1.940000 -0.288900
			CHANNELS 3 Zrotation Yrotation Xrotation
			JOINT Spine1
			{
				OFFSET 0.000000 1.950000 0.060000
				CHANNELS 3 Zrotation Yrotation Xrotation
				JOINT Neck
				{
					OFFSET 0.000000 0.000000 0.000000
					CHANNELS 3 Zrotation Yrotation Xrotation
					JOINT Neck1
					{
						OFFSET 0.000000 1.600000 0.340000
						CHANNELS 3 Zrotation Yrotation Xrotation
						JOINT Head
						{
							OFFSET 0.000000 1.667000 -0.240000
							CHANNELS 3 Zrotation Yrotation Xrotation
							End Site
							{
								OFFSET 0.000000 0.000000 0.000000
							}
						}
					}
				}
				JOINT LeftShoulder
				{
					OFFSET 0.000000 0.000000 0.000000
					CHANNELS 3 Zrotation Yrotation Xrotation
					JOINT LeftArm
					{
						OFFSET 2.700000 1.550000 -0.730000
						CHANNELS 3 Zrotation Yrotation Xrotation
						JOINT LeftForeArm
						{
							OFFSET 5.450000 0.000000 0.000000
							CHANNELS 3 Zrotation Yrotation Xrotation
							JOINT LeftHand
							{
								OFFSET 3.450000 0.000000 0.000000
								CHANNELS 3 Zrotation Yrotation Xrotation
								JOINT LeftHandIndex1
								{
									OFFSET 0.750000 0.000000 0.000000
									CHANNELS 3 Zrotation Yrotation Xrotation
									End Site
									{
										OFFSET 0.000000 0.000000 0.000000
									}
								}
							}
						}
					}
				}
				JOINT RightShoulder
				{
					OFFSET 0.000000 0.000000 0.000000
					CHANNELS 3 Zrotation Yrotation Xrotation
					JOINT RightArm
					{
						OFFSET -2.700000 1.550000 -0.730000
						CHANNELS 3 Zrotation Yrotation Xrotation
						JOINT RightForeArm
						{
							OFFSET -5.450000 0.000000 0.000000
							CHANNELS 3 Zrotation Yrotation Xrotation
							JOINT RightHand
							{
								OFFSET -3.450000 0.000000 0.000000
								CHANNELS 3 Zrotation Yrotation Xrotation
								JOINT RightHandIndex1
								{
									OFFSET -0.750000 0.000000 0.000000
									CHANNELS 3 Zrotation Yrotation Xrotation
									End Site
									{
										OFFSET 0.000000 0.000000 0.000000
									}
								}
							}
						}
					}
				}
			}
		}
	}
}
MOTION
Frames: 7
Frame Time: 0.016667
10.806620 20.019030 -9.442970 172.250162 57.021027 157.846529 -14.809725 14.245949 5.384007 -5.246541 -7.362690 -42.259467 1.732086 -1.255182 -14.678050 2.222422 -2.183889 6.566670 6.490620 6.979770 4.429970 18.327647 -8.684206 3.684271 -30.778992 7.865214 47.292329 82.582834 -20.447291 0.014458 -3.564622 -9.451016 2.959332 4.304580 -3.474640 -0.051720 -1.745434 -5.843698 -8.256307 -11.024200 -44.176097 48.453808 -25.407992 -3.203881 -28.008158 24.413416 6.285920 -34.458339 -19.434521 -1.056621 51.441280 7.085110 -19.001950 -20.375210 38.936928 19.560335 -12.438520 37.687507 -29.216568 -14.869350 19.392740 -3.506150 0.859945 -1.668298 1.727194 -0.465090 0.031640 1.401770 1.122310 -67.363250 10.749515 12.003755 -68.352010 28.471125 -127.972272 -24.211531 11.193258 -4.741047 -0.886109 -8.196168 2.655610 -2.092520 -5.847710 -0.605110 
11.027120 20.014840 -9.642750 170.612923 52.817977 160.407393 -15.070466 14.349854 5.885738 -12.112307 -9.644895 -35.537309 3.640573 -0.294096 -33.267050 2.753240 -0.613879 6.220040 6.414230 6.706140 4.527890 18.242023 -7.764300 3.940927 -26.579287 4.686017 49.317414 91.498306 -13.912649 -8.809119 -3.309631 -8.296536 3.312741 3.988080 -3.350270 -0.046070 -1.276832 -7.471367 -9.010318 -12.770372 -46.890246 44.655181 -21.981409 -1.933935 -27.401918 28.596775 3.435966 -32.257120 -24.915028 -4.585066 48.160574 2.097790 -25.100120 -18.038760 43.281455 23.866277 -12.341972 29.287169 -31.861591 -12.682341 27.064292 -4.108597 1.010952 -1.829304 1.921609 -0.585190 0.008620 1.258950 1.106220 -75.624298 10.339673 -7.650018 -52.480537 45.701308 -121.214811 -26.051635 16.937570 -5.249913 -4.658955 -10.564857 2.715040 -1.980790 -5.692440 -0.606330 
11.188760 20.002880 -9.958560 -178.161556 55.842598 163.467903 -14.876663 14.704915 5.600666 -1.229724 -3.639605 -33.710162 -2.408452 -0.627227 -27.379871 2.192957 0.353969 6.221998 5.709500 5.127730 4.811360 18.305323 -8.114870 3.481112 -23.866252 4.955547 52.564200 79.698933 -22.502182 3.472869 -3.091859 -9.270212 2.829887 3.079470 -2.997640 -0.434700 -1.261592 -8.193046 -8.445977 6.770449 -47.620733 48.348098 -35.550640 -9.559648 -34.710232 31.104201 -0.367755 -25.811102 -34.187214 -2.452161 58.851196 5.308040 -39.829670 -23.454290 37.034256 20.605720 -11.298435 38.034856 -31.255480 -14.717974 28.172965 -4.859723 0.425700 -1.982130 1.297372 -0.142470 -0.231870 0.597020 0.337790 -77.991925 11.180199 3.886476 -52.722168 39.655447 -137.353266 -26.896551 18.248718 -5.051261 -1.090858 -7.087003 2.044910 -1.597720 -5.045690 -1.042280 
11.166160 19.888960 -10.126610 -161.889497 61.165112 150.793812 -8.955441 16.804598 9.450922 11.064331 1.511313 -11.372946 -5.053040 0.409437 -25.319868 -0.309575 2.990085 5.660018 4.612250 2.388200 5.411710 20.858790 -13.737504 8.111078 -22.367479 9.105943 68.062960 35.604172 -24.762028 32.251367 -2.419108 -10.909364 1.776590 2.015670 -2.082500 -1.063610 -1.217610 0.563442 0.387433 49.063569 -33.399037 41.073027 -70.986544 -20.942211 21.631695 29.417875 -0.618042 10.245423 -8.266945 -39.774354 30.890635 44.271880 -46.177630 -53.583610 15.418415 3.365417 -16.009559 78.769422 -11.485699 -23.719165 22.643026 1.298093 -3.140546 -2.777838 -0.339912 1.265550 -0.476640 -0.721390 -0.995830 -81.692449 11.263644 41.295558 -28.338077 15.110559 154.524613 -4.963332 27.985323 -174.716094 -11.863009 9.263116 0.247060 -0.651370 -3.563410 -2.227030 
11.867560 19.883780 -10.532230 176.239247 57.542494 176.113871 -15.204023 9.345477 5.198326 3.361443 -7.620924 -40.725623 -0.887967 -0.678338 -20.834188 -3.833441 4.167351 5.535126 6.057730 3.923340 4.265240 18.540693 -11.729804 2.210572 -23.379815 4.996294 33.732072 13.217332 -11.435259 32.892218 -0.498675 -11.684678 0.619106 5.418700 0.385710 -1.390610 -6.676835 2.229234 -5.679579 45.190767 -13.245941 13.465702 -44.495211 -23.606195 4.728616 37.663079 18.196697 36.932467 39.357914 -76.510040 -8.026218 36.659310 -58.853900 -55.814930 -39.198763 25.492426 -51.792225 90.211161 -26.641351 -10.871963 34.192817 3.266523 -3.579468 -3.294121 0.675493 0.928290 0.286230 -2.711110 0.272600 -42.277429 -69.328836 -24.003654 -136.405669 43.979605 121.493334 -19.226073 20.000017 -4.094709 -9.077218 -0.835087 -1.664290 0.808180 -3.454720 -1.523570 
13.368520 19.958440 -10.388580 56.323245 84.316133 100.810202 -15.757680 8.861054 6.604752 18.592019 -3.374324 -53.434157 8.559255 2.213561 -26.664670 -11.697562 17.846115 2.373148 13.317440 14.385310 1.046990 18.552890 -9.430265 0.605543 -33.471434 13.644093 -14.149096 2.144178 12.805322 36.083190 4.101812 -18.809303 -4.206727 19.617960 13.083940 2.060470 -1.471856 -5.163033 -4.453805 7.892358 -3.646619 -11.624756 9.768910 16.593901 0.099988 -4.588445 8.230700 42.338455 18.842588 -56.246544 1.395878 -88.494580 -78.951870 57.115650 -106.043642 45.544269 -44.070214 54.349189 13.692896 70.016383 -15.985737 33.215315 171.883769 -18.566312 27.100483 -13.008040 9.475740 -13.739790 5.928810 85.323674 -42.505992 -52.506931 -19.371080 -76.352795 -63.118050 -54.304818 -17.183237 -30.691822 -5.788673 -21.677554 -2.038220 6.975240 -2.566560 3.279210 
15.024410 20.135950 -10.800700 113.007477 89.833802 170.185960 -16.309678 7.343656 7.625552 21.766301 -5.114960 -48.524825 1.596213 13.121084 -37.028796 16.062088 52.028076 24.362834 -13.983660 -11.377080 -36.844020 17.413400 -11.125846 2.948402 -25.355996 20.629981 -15.853407 1.496440 22.207173 23.488565 24.591301 -49.278569 -13.126168 27.981780 52.448290 19.283590 -6.509050 2.327659 -0.950435 2.828287 1.057801 -16.349462 28.395576 7.578691 -27.794033 -9.582499 12.824945 63.717349 29.655070 -88.043913 -22.384329 -149.648500 -56.604380 122.387460 -44.901446 62.850209 -62.611583 31.909452 -0.111517 60.511043 21.215087 4.860540 -11.695835 -85.431178 13.914270 -46.011230 44.448030 -39.951030 -3.379500 48.057191 -57.887348 -35.136904 -34.832502 -40.531753 20.750762 0.226386 -65.799422 76.814762 -13.789611 -40.903810 -4.201680 17.786460 12.006270 22.317260 
